<svg width="1441" height="736" viewBox="0 0 1441 736" fill="#C0DFF1" xmlns="http://www.w3.org/2000/svg">
<path d="M1440.5 1H1V734C186.6 572.8 467.5 592.64 575 636C885.4 761.2 1108.5 683.667 1180 631.5C1138.4 472.3 1021.33 337.167 968 289.5C962.4 293.5 974.667 329.833 981.5 347.5L970 352L984.5 355.5C989.3 360.3 998.167 388.833 1002 402.5C999.6 399.7 992 402 988.5 403.5L1003 411C1009 425.8 1013.83 459.833 1015.5 475C930.7 425 930.167 334.5 940.5 295.5C933.7 301.5 925.333 342.333 922 362L908.5 358L922 373.5C918 384.5 918 421 918 424C918 426.4 907 420.667 901.5 417.5C902.3 422.7 912.833 433 918 437.5C915.2 446.7 916.833 479.333 918 494.5C818.4 416.5 881.833 320.333 926 282C904.8 287.2 885.5 305.5 878.5 314L872 307.5V323.5C865.6 328.7 850.333 344.333 843.5 351.5L832 341V358C816 372 797.667 399.167 790.5 411C757 268.5 937 265 914 261C895.6 257.8 865 262.333 852 265V256C846.4 256 840 264.333 837.5 268.5C823.5 268.5 804.667 277.5 797 282V268.5C790.6 270.9 786 282.5 784.5 288C772.1 287.2 746.667 297.667 735.5 303C777.9 199 874.833 214.333 918 235C856 118.6 924.167 66.1667 966 54.5C964 68.8333 958.4 98.6 952 103C945.6 107.4 941.667 116.5 940.5 120.5L952 117C949.833 133.5 944.5 167.2 940.5 170C936.5 172.8 931.833 180.5 930 184L940.5 181.5C933.7 195.9 943.333 219.167 949 229C972 80 1144.5 123 1125.5 132C1110.3 139.2 1092.17 152.667 1085 158.5C1075.4 152.1 1060.33 155.833 1054 158.5C1062.83 160.167 1078.2 164.1 1069 166.5C1059.8 168.9 1033.17 190.167 1021 200.5C1007 196.5 998.167 202.167 995.5 205.5L1007.5 210.5C982.3 222.1 975.667 238 975.5 244.5C1086.7 185.3 1167.17 227.5 1193.5 256C1189.67 259.333 1180.1 264.6 1172.5 259C1164.9 253.4 1154.33 251 1150 250.5L1158.5 262.5C1142.5 267.7 1129.83 267 1125.5 266C1108.3 253.2 1103.33 254 1103 256L1109 272C1097.8 276.8 1074.33 274 1064 272L1046.5 256V275.5C1019.7 264.7 996.667 271 988.5 275.5C1114.5 358.7 1218 512.5 1254 579C1320 539 1405.83 552.667 1440.5 564.5V1Z" stroke="#F1F1F1"/>
</svg>
