<svg width="49" height="42" viewBox="0 0 49 42" fill="none" xmlns="http://www.w3.org/2000/svg">
<path d="M3.92456 14.4352C3.92456 6.9453 8.91098 0 15.7391 0C20.4775 0 23.9935 3.1161 26.1638 7.5366C28.3339 3.11636 31.8499 0 36.5884 0C43.4173 0 48.403 6.94648 48.403 14.4352C48.403 30.4661 26.1638 41.862 26.1638 41.862C26.1638 41.862 11.1833 34.6502 5.81241 22.8206H19.0797L21.1885 19.0718L23.6516 27.6933L29.42 20.2769H36.6293V17.6605H28.1403L24.7513 22.0178L21.9817 12.3247L17.5496 20.2042H4.81392C5.09123 21.0995 5.42715 21.9719 5.81241 22.8206L0 22.8204V20.204L4.81392 20.2042C4.24694 18.3739 3.92456 16.448 3.92456 14.4352Z" fill="#FF0000"/>
</svg>
